<?xml version="1.0" encoding="UTF-8"?>
<svg height="128px" viewBox="0 0 128 128" width="128px" xmlns="http://www.w3.org/2000/svg" xmlns:xlink="http://www.w3.org/1999/xlink">
    <linearGradient id="a" gradientUnits="userSpaceOnUse">
        <stop offset="0" stop-color="#e01b24"/>
        <stop offset="1" stop-color="#ffa348"/>
    </linearGradient>
    <linearGradient id="b" x1="8" x2="120" xlink:href="#a" y1="116" y2="32"/>
    <linearGradient id="c" x1="8" x2="120" xlink:href="#a" y1="112" y2="28"/>
    <path d="m 16 32 h 96 c 4.417969 0 8 3.582031 8 8 v 68 c 0 4.417969 -3.582031 8 -8 8 h -96 c -4.417969 0 -8 -3.582031 -8 -8 v -68 c 0 -4.417969 3.582031 -8 8 -8 z m 0 0" fill="url(#b)"/>
    <path d="m 16 32 h 96 c 4.417969 0 8 3.582031 8 8 v 68 c 0 4.417969 -3.582031 8 -8 8 h -96 c -4.417969 0 -8 -3.582031 -8 -8 v -68 c 0 -4.417969 3.582031 -8 8 -8 z m 0 0" fill-opacity="0.2"/>
    <path d="m 16 28 h 96 c 4.417969 0 8 3.582031 8 8 v 68 c 0 4.417969 -3.582031 8 -8 8 h -96 c -4.417969 0 -8 -3.582031 -8 -8 v -68 c 0 -4.417969 3.582031 -8 8 -8 z m 0 0" fill="url(#c)"/>
    <g fill="#ffffff" fill-opacity="0.2">
        <path d="m 20 36 h 8 c 2.210938 0 4 1.789062 4 4 v 8 c 0 2.210938 -1.789062 4 -4 4 h -8 c -2.210938 0 -4 -1.789062 -4 -4 v -8 c 0 -2.210938 1.789062 -4 4 -4 z m 0 0"/>
        <path d="m 40 36 h 8 c 2.210938 0 4 1.789062 4 4 v 8 c 0 2.210938 -1.789062 4 -4 4 h -8 c -2.210938 0 -4 -1.789062 -4 -4 v -8 c 0 -2.210938 1.789062 -4 4 -4 z m 0 0"/>
        <path d="m 60 36 h 8 c 2.210938 0 4 1.789062 4 4 v 8 c 0 2.210938 -1.789062 4 -4 4 h -8 c -2.210938 0 -4 -1.789062 -4 -4 v -8 c 0 -2.210938 1.789062 -4 4 -4 z m 0 0"/>
        <path d="m 80 36 h 8 c 2.210938 0 4 1.789062 4 4 v 8 c 0 2.210938 -1.789062 4 -4 4 h -8 c -2.210938 0 -4 -1.789062 -4 -4 v -8 c 0 -2.210938 1.789062 -4 4 -4 z m 0 0"/>
        <path d="m 100 36 h 8 c 2.210938 0 4 1.789062 4 4 v 8 c 0 2.210938 -1.789062 4 -4 4 h -8 c -2.210938 0 -4 -1.789062 -4 -4 v -8 c 0 -2.210938 1.789062 -4 4 -4 z m 0 0"/>
        <path d="m 100 56 h 8 c 2.210938 0 4 1.789062 4 4 v 8 c 0 2.210938 -1.789062 4 -4 4 h -8 c -2.210938 0 -4 -1.789062 -4 -4 v -8 c 0 -2.210938 1.789062 -4 4 -4 z m 0 0"/>
        <path d="m 80 56 h 8 c 2.210938 0 4 1.789062 4 4 v 8 c 0 2.210938 -1.789062 4 -4 4 h -8 c -2.210938 0 -4 -1.789062 -4 -4 v -8 c 0 -2.210938 1.789062 -4 4 -4 z m 0 0"/>
        <path d="m 60 56 h 8 c 2.210938 0 4 1.789062 4 4 v 8 c 0 2.210938 -1.789062 4 -4 4 h -8 c -2.210938 0 -4 -1.789062 -4 -4 v -8 c 0 -2.210938 1.789062 -4 4 -4 z m 0 0"/>
        <path d="m 40 76 h 8 c 2.210938 0 4 1.789062 4 4 v 8 c 0 2.210938 -1.789062 4 -4 4 h -8 c -2.210938 0 -4 -1.789062 -4 -4 v -8 c 0 -2.210938 1.789062 -4 4 -4 z m 0 0"/>
        <path d="m 40 56 h 8 c 2.210938 0 4 1.789062 4 4 v 8 c 0 2.210938 -1.789062 4 -4 4 h -8 c -2.210938 0 -4 -1.789062 -4 -4 v -8 c 0 -2.210938 1.789062 -4 4 -4 z m 0 0"/>
        <path d="m 20 76 h 8 c 2.210938 0 4 1.789062 4 4 v 8 c 0 2.210938 -1.789062 4 -4 4 h -8 c -2.210938 0 -4 -1.789062 -4 -4 v -8 c 0 -2.210938 1.789062 -4 4 -4 z m 0 0"/>
        <path d="m 20 56 h 8 c 2.210938 0 4 1.789062 4 4 v 8 c 0 2.210938 -1.789062 4 -4 4 h -8 c -2.210938 0 -4 -1.789062 -4 -4 v -8 c 0 -2.210938 1.789062 -4 4 -4 z m 0 0"/>
    </g>
    <path d="m 102 76 c -3.289062 0 -6 2.710938 -6 6 v 14 h -14 c -3.289062 0 -6 2.710938 -6 6 s 2.710938 6 6 6 h 14 v 14 c 0 3.289062 2.710938 6 6 6 s 6 -2.710938 6 -6 v -14 h 14 c 3.289062 0 6 -2.710938 6 -6 s -2.710938 -6 -6 -6 h -14 v -14 c 0 -3.289062 -2.710938 -6 -6 -6 z m 0 4 c 1.128906 0 2 0.871094 2 2 v 18 h 18 c 1.128906 0 2 0.871094 2 2 s -0.871094 2 -2 2 h -18 v 18 c 0 1.128906 -0.871094 2 -2 2 s -2 -0.871094 -2 -2 v -18 h -18 c -1.128906 0 -2 -0.871094 -2 -2 s 0.871094 -2 2 -2 h 18 v -18 c 0 -1.128906 0.871094 -2 2 -2 z m 0 0" fill="#c0bfbc"/>
    <path d="m 102 74 c -3.289062 0 -6 2.710938 -6 6 v 14 h -14 c -3.289062 0 -6 2.710938 -6 6 s 2.710938 6 6 6 h 14 v 14 c 0 3.289062 2.710938 6 6 6 s 6 -2.710938 6 -6 v -14 h 14 c 3.289062 0 6 -2.710938 6 -6 s -2.710938 -6 -6 -6 h -14 v -14 c 0 -3.289062 -2.710938 -6 -6 -6 z m 0 4 c 1.128906 0 2 0.871094 2 2 v 18 h 18 c 1.128906 0 2 0.871094 2 2 s -0.871094 2 -2 2 h -18 v 18 c 0 1.128906 -0.871094 2 -2 2 s -2 -0.871094 -2 -2 v -18 h -18 c -1.128906 0 -2 -0.871094 -2 -2 s 0.871094 -2 2 -2 h 18 v -18 c 0 -1.128906 0.871094 -2 2 -2 z m 0 0" fill="#ffffff"/>
    <path d="m 100 80 v 18 h -18 c -1.105469 0 -2 0.894531 -2 2 s 0.894531 2 2 2 h 18 v 18 c 0 1.105469 0.894531 2 2 2 h 0.113281 c 1.101563 0 2 -0.894531 2 -2 v -18 h 17.886719 c 1.105469 0 2 -0.894531 2 -2 s -0.894531 -2 -2 -2 h -17.886719 v -18 c 0 -1.105469 -0.898437 -2 -2 -2 h -0.113281 c -1.105469 0 -2 0.894531 -2 2 z m 0 0" fill="#deddda"/>
</svg>
